<?xml version="1.0" encoding="UTF-8" standalone="no"?>
<!DOCTYPE svg PUBLIC "-//W3C//DTD SVG 1.1//EN" "http://www.w3.org/Graphics/SVG/1.1/DTD/svg11.dtd">
<svg width="100%" height="100%" viewBox="0 0 3544 1347" version="1.1" xmlns="http://www.w3.org/2000/svg" xmlns:xlink="http://www.w3.org/1999/xlink" xml:space="preserve" xmlns:serif="http://www.serif.com/" style="fill-rule:evenodd;clip-rule:evenodd;stroke-linejoin:round;stroke-miterlimit:2;">
    <g transform="matrix(1,0,0,1,-20767.7,-4282.68)">
        <g transform="matrix(1,0,0,2.03941,15380,-7344.7)">
            <g transform="matrix(1,0,0,0.490337,5548.66,5342.66)">
                <g transform="matrix(41.6667,0,0,41.6667,524.567,763.111)">
                </g>
                <text x="331.9px" y="763.111px" style="font-family:'TrebuchetMS-Bold', 'Trebuchet MS', sans-serif;font-weight:700;font-size:41.667px;stroke:rgb(36,40,70);stroke-width:1px;">main blue</text>
            </g>
        </g>
        <g transform="matrix(1,0,0,2.03941,15380,-7344.7)">
            <g transform="matrix(1,0,0,0.490337,6465.32,5516.4)">
                <g transform="matrix(41.6667,0,0,41.6667,575.05,763.111)">
                </g>
                <text x="340.472px" y="763.111px" style="font-family:'TrebuchetMS-Bold', 'Trebuchet MS', sans-serif;font-weight:700;font-size:41.667px;fill:rgb(252,192,19);">main yellow</text>
            </g>
        </g>
        <g transform="matrix(1,0,0,2.03941,15380,-7344.7)">
            <g transform="matrix(1,0,0,0.490337,6465.32,5690.14)">
                <g transform="matrix(41.6667,0,0,41.6667,544.523,763.111)">
                </g>
                <text x="371px" y="763.111px" style="font-family:'TrebuchetMS-Bold', 'Trebuchet MS', sans-serif;font-weight:700;font-size:41.667px;fill:rgb(235,69,41);">main red</text>
            </g>
        </g>
        <g transform="matrix(1,0,0,2.03941,15380,-7344.7)">
            <g transform="matrix(1,0,0,0.490337,6465.32,5863.88)">
                <g transform="matrix(41.6667,0,0,41.6667,567.157,763.111)">
                </g>
                <text x="348.366px" y="763.111px" style="font-family:'TrebuchetMS-Bold', 'Trebuchet MS', sans-serif;font-weight:700;font-size:41.667px;fill:rgb(21,150,56);">main green</text>
            </g>
        </g>
        <g transform="matrix(1,0,0,2.03941,15380,-7344.7)">
            <g transform="matrix(0.983319,0,0,0.482158,-17504.1,5254.55)">
                <path d="M24000.8,1034.35L24000.8,1154.47C24000.8,1187.61 23973.9,1214.52 23940.7,1214.52L23820.6,1214.52C23787.5,1214.52 23760.6,1187.61 23760.6,1154.47L23760.6,1034.35C23760.6,1001.21 23787.5,974.295 23820.6,974.295L23940.7,974.295C23973.9,974.295 24000.8,1001.21 24000.8,1034.35Z" style="fill:rgb(36,40,70);"/>
            </g>
        </g>
        <g transform="matrix(1,0,0,2.03941,15380,-7344.7)">
            <g transform="matrix(0.983319,0,0,0.482158,-15613.9,5602.3)">
                <path d="M24000.8,1034.35L24000.8,1154.47C24000.8,1187.61 23973.9,1214.52 23940.7,1214.52L23820.6,1214.52C23787.5,1214.52 23760.6,1187.61 23760.6,1154.47L23760.6,1034.35C23760.6,1001.21 23787.5,974.295 23820.6,974.295L23940.7,974.295C23973.9,974.295 24000.8,1001.21 24000.8,1034.35Z" style="fill:rgb(251,214,208);"/>
            </g>
        </g>
        <g transform="matrix(1,0,0,2.03941,15380,-7344.7)">
            <g transform="matrix(0.983319,0,0,0.482158,-17504.1,5775.91)">
                <path d="M24000.8,1034.35L24000.8,1154.47C24000.8,1187.61 23973.9,1214.52 23940.7,1214.52L23820.6,1214.52C23787.5,1214.52 23760.6,1187.61 23760.6,1154.47L23760.6,1034.35C23760.6,1001.21 23787.5,974.295 23820.6,974.295L23940.7,974.295C23973.9,974.295 24000.8,1001.21 24000.8,1034.35Z" style="fill:rgb(0,50,18);"/>
            </g>
        </g>
        <g transform="matrix(1,0,0,2.03941,15380,-7344.7)">
            <g transform="matrix(0.983319,0,0,0.482158,-15614.4,5428.16)">
                <path d="M24000.8,1034.35L24000.8,1154.47C24000.8,1187.61 23973.9,1214.52 23940.7,1214.52L23820.6,1214.52C23787.5,1214.52 23760.6,1187.61 23760.6,1154.47L23760.6,1034.35C23760.6,1001.21 23787.5,974.295 23820.6,974.295L23940.7,974.295C23973.9,974.295 24000.8,1001.21 24000.8,1034.35Z" style="fill:rgb(255,242,204);"/>
            </g>
        </g>
        <g transform="matrix(1,0,0,2.03941,15380,-7344.7)">
            <g transform="matrix(0.983319,0,0,0.482158,-16323,5254.55)">
                <path d="M24000.8,1034.35L24000.8,1154.47C24000.8,1187.61 23973.9,1214.52 23940.7,1214.52L23820.6,1214.52C23787.5,1214.52 23760.6,1187.61 23760.6,1154.47L23760.6,1034.35C23760.6,1001.21 23787.5,974.295 23820.6,974.295L23940.7,974.295C23973.9,974.295 24000.8,1001.21 24000.8,1034.35Z" style="fill:rgb(154,160,203);"/>
            </g>
        </g>
        <g transform="matrix(1,0,0,2.03941,15380,-7344.7)">
            <g transform="matrix(0.983319,0,0,0.482158,-16795.5,5602.03)">
                <path d="M24000.8,1034.35L24000.8,1154.47C24000.8,1187.61 23973.9,1214.52 23940.7,1214.52L23820.6,1214.52C23787.5,1214.52 23760.6,1187.61 23760.6,1154.47L23760.6,1034.35C23760.6,1001.21 23787.5,974.295 23820.6,974.295L23940.7,974.295C23973.9,974.295 24000.8,1001.21 24000.8,1034.35Z" style="fill:rgb(233,52,22);"/>
            </g>
        </g>
        <g transform="matrix(1,0,0,2.03941,15380,-7344.7)">
            <g transform="matrix(0.983319,0,0,0.482158,-16323,5775.91)">
                <path d="M24000.8,1034.35L24000.8,1154.47C24000.8,1187.61 23973.9,1214.52 23940.7,1214.52L23820.6,1214.52C23787.5,1214.52 23760.6,1187.61 23760.6,1154.47L23760.6,1034.35C23760.6,1001.21 23787.5,974.295 23820.6,974.295L23940.7,974.295C23973.9,974.295 24000.8,1001.21 24000.8,1034.35Z" style="fill:rgb(0,153,57);"/>
            </g>
        </g>
        <g transform="matrix(1,0,0,2.03941,15380,-7344.7)">
            <g transform="matrix(0.983319,0,0,0.482158,-16795.9,5428.29)">
                <path d="M24000.8,1034.35L24000.8,1154.47C24000.8,1187.61 23973.9,1214.52 23940.7,1214.52L23820.6,1214.52C23787.5,1214.52 23760.6,1187.61 23760.6,1154.47L23760.6,1034.35C23760.6,1001.21 23787.5,974.295 23820.6,974.295L23940.7,974.295C23973.9,974.295 24000.8,1001.21 24000.8,1034.35Z" style="fill:rgb(254,189,1);"/>
            </g>
        </g>
        <g transform="matrix(1,0,0,2.03941,15380,-7344.7)">
            <g transform="matrix(0.983319,0,0,0.482158,-17267.9,5254.55)">
                <path d="M24000.8,1034.35L24000.8,1154.47C24000.8,1187.61 23973.9,1214.52 23940.7,1214.52L23820.6,1214.52C23787.5,1214.52 23760.6,1187.61 23760.6,1154.47L23760.6,1034.35C23760.6,1001.21 23787.5,974.295 23820.6,974.295L23940.7,974.295C23973.9,974.295 24000.8,1001.21 24000.8,1034.35Z" style="fill:rgb(59,52,101);"/>
            </g>
        </g>
        <g transform="matrix(1,0,0,2.03941,15380,-7344.7)">
            <g transform="matrix(0.983319,0,0,0.482158,-17976.6,5254.55)">
                <path d="M24000.8,1034.35L24000.8,1154.47C24000.8,1187.61 23973.9,1214.52 23940.7,1214.52L23820.6,1214.52C23787.5,1214.52 23760.6,1187.61 23760.6,1154.47L23760.6,1034.35C23760.6,1001.21 23787.5,974.295 23820.6,974.295L23940.7,974.295C23973.9,974.295 24000.8,1001.21 24000.8,1034.35Z" style="fill:rgb(17,19,34);"/>
            </g>
        </g>
        <g transform="matrix(1,0,0,2.03941,15380,-7344.7)">
            <g transform="matrix(0.983319,0,0,0.482158,-15850.6,5602.3)">
                <path d="M24000.8,1034.35L24000.8,1154.47C24000.8,1187.61 23973.9,1214.52 23940.7,1214.52L23820.6,1214.52C23787.5,1214.52 23760.6,1187.61 23760.6,1154.47L23760.6,1034.35C23760.6,1001.21 23787.5,974.295 23820.6,974.295L23940.7,974.295C23973.9,974.295 24000.8,1001.21 24000.8,1034.35Z" style="fill:rgb(246,174,162);"/>
            </g>
        </g>
        <g transform="matrix(1,0,0,2.03941,15380,-7344.7)">
            <g transform="matrix(0.983319,0,0,0.482158,-17267.9,5775.91)">
                <path d="M24000.8,1034.35L24000.8,1154.47C24000.8,1187.61 23973.9,1214.52 23940.7,1214.52L23820.6,1214.52C23787.5,1214.52 23760.6,1187.61 23760.6,1154.47L23760.6,1034.35C23760.6,1001.21 23787.5,974.295 23820.6,974.295L23940.7,974.295C23973.9,974.295 24000.8,1001.21 24000.8,1034.35Z" style="fill:rgb(0,77,28);"/>
            </g>
        </g>
        <g transform="matrix(1,0,0,2.03941,15380,-7344.7)">
            <g transform="matrix(0.983319,0,0,0.482158,-15850.6,5428.16)">
                <path d="M24000.8,1034.35L24000.8,1154.47C24000.8,1187.61 23973.9,1214.52 23940.7,1214.52L23820.6,1214.52C23787.5,1214.52 23760.6,1187.61 23760.6,1154.47L23760.6,1034.35C23760.6,1001.21 23787.5,974.295 23820.6,974.295L23940.7,974.295C23973.9,974.295 24000.8,1001.21 24000.8,1034.35Z" style="fill:rgb(255,228,153);"/>
            </g>
        </g>
        <g transform="matrix(1,0,0,2.03941,15380,-7344.7)">
            <g transform="matrix(0.983319,0,0,0.482158,-16086.8,5254.55)">
                <path d="M24000.8,1034.35L24000.8,1154.47C24000.8,1187.61 23973.9,1214.52 23940.7,1214.52L23820.6,1214.52C23787.5,1214.52 23760.6,1187.61 23760.6,1154.47L23760.6,1034.35C23760.6,1001.21 23787.5,974.295 23820.6,974.295L23940.7,974.295C23973.9,974.295 24000.8,1001.21 24000.8,1034.35Z" style="fill:rgb(188,191,220);"/>
            </g>
        </g>
        <g transform="matrix(1,0,0,2.03941,15380,-7344.7)">
            <g transform="matrix(0.983319,0,0,0.482158,-17032.1,5602.17)">
                <path d="M24000.8,1034.35L24000.8,1154.47C24000.8,1187.61 23973.9,1214.52 23940.7,1214.52L23820.6,1214.52C23787.5,1214.52 23760.6,1187.61 23760.6,1154.47L23760.6,1034.35C23760.6,1001.21 23787.5,974.295 23820.6,974.295L23940.7,974.295C23973.9,974.295 24000.8,1001.21 24000.8,1034.35Z" style="fill:rgb(210,47,20);"/>
            </g>
        </g>
        <g transform="matrix(1,0,0,2.03941,15380,-7344.7)">
            <g transform="matrix(0.983319,0,0,0.482158,-16086.8,5775.91)">
                <path d="M24000.8,1034.35L24000.8,1154.47C24000.8,1187.61 23973.9,1214.52 23940.7,1214.52L23820.6,1214.52C23787.5,1214.52 23760.6,1187.61 23760.6,1154.47L23760.6,1034.35C23760.6,1001.21 23787.5,974.295 23820.6,974.295L23940.7,974.295C23973.9,974.295 24000.8,1001.21 24000.8,1034.35Z" style="fill:rgb(0,178,67);"/>
            </g>
        </g>
        <g transform="matrix(1,0,0,2.03941,15380,-7344.7)">
            <g transform="matrix(0.983319,0,0,0.482158,-17031.7,5428.29)">
                <path d="M24000.8,1034.35L24000.8,1154.47C24000.8,1187.61 23973.9,1214.52 23940.7,1214.52L23820.6,1214.52C23787.5,1214.52 23760.6,1187.61 23760.6,1154.47L23760.6,1034.35C23760.6,1001.21 23787.5,974.295 23820.6,974.295L23940.7,974.295C23973.9,974.295 24000.8,1001.21 24000.8,1034.35Z" style="fill:rgb(229,170,1);"/>
            </g>
        </g>
        <g transform="matrix(1,0,0,2.03941,15380,-7344.7)">
            <g transform="matrix(0.983319,0,0,0.482158,-17031.7,5254.55)">
                <path d="M24000.8,1034.35L24000.8,1154.47C24000.8,1187.61 23973.9,1214.52 23940.7,1214.52L23820.6,1214.52C23787.5,1214.52 23760.6,1187.61 23760.6,1154.47L23760.6,1034.35C23760.6,1001.21 23787.5,974.295 23820.6,974.295L23940.7,974.295C23973.9,974.295 24000.8,1001.21 24000.8,1034.35Z" style="fill:rgb(69,77,135);"/>
            </g>
        </g>
        <g transform="matrix(1,0,0,2.03941,15380,-7344.7)">
            <g transform="matrix(0.983319,0,0,0.482158,-17740.3,5254.55)">
                <path d="M24000.8,1034.35L24000.8,1154.47C24000.8,1187.61 23973.9,1214.52 23940.7,1214.52L23820.6,1214.52C23787.5,1214.52 23760.6,1187.61 23760.6,1154.47L23760.6,1034.35C23760.6,1001.21 23787.5,974.295 23820.6,974.295L23940.7,974.295C23973.9,974.295 24000.8,1001.21 24000.8,1034.35Z" style="fill:rgb(26,29,51);"/>
            </g>
        </g>
        <g transform="matrix(1,0,0,2.03941,15380,-7344.7)">
            <g transform="matrix(0.983319,0,0,0.482158,-16086.4,5602.3)">
                <path d="M24000.8,1034.35L24000.8,1154.47C24000.8,1187.61 23973.9,1214.52 23940.7,1214.52L23820.6,1214.52C23787.5,1214.52 23760.6,1187.61 23760.6,1154.47L23760.6,1034.35C23760.6,1001.21 23787.5,974.295 23820.6,974.295L23940.7,974.295C23973.9,974.295 24000.8,1001.21 24000.8,1034.35Z" style="fill:rgb(242,133,115);"/>
            </g>
        </g>
        <g transform="matrix(1,0,0,2.03941,15380,-7344.7)">
            <g transform="matrix(0.983319,0,0,0.482158,-17031.7,5775.91)">
                <path d="M24000.8,1034.35L24000.8,1154.47C24000.8,1187.61 23973.9,1214.52 23940.7,1214.52L23820.6,1214.52C23787.5,1214.52 23760.6,1187.61 23760.6,1154.47L23760.6,1034.35C23760.6,1001.21 23787.5,974.295 23820.6,974.295L23940.7,974.295C23973.9,974.295 24000.8,1001.21 24000.8,1034.35Z" style="fill:rgb(0,101,37);"/>
            </g>
        </g>
        <g transform="matrix(1,0,0,2.03941,15380,-7344.7)">
            <g transform="matrix(0.983319,0,0,0.482158,-16086.8,5428.16)">
                <path d="M24000.8,1034.35L24000.8,1154.47C24000.8,1187.61 23973.9,1214.52 23940.7,1214.52L23820.6,1214.52C23787.5,1214.52 23760.6,1187.61 23760.6,1154.47L23760.6,1034.35C23760.6,1001.21 23787.5,974.295 23820.6,974.295L23940.7,974.295C23973.9,974.295 24000.8,1001.21 24000.8,1034.35Z" style="fill:rgb(254,215,103);"/>
            </g>
        </g>
        <g transform="matrix(1,0,0,2.03941,15380,-7344.7)">
            <g transform="matrix(0.983319,0,0,0.482158,-15850.6,5254.55)">
                <path d="M24000.8,1034.35L24000.8,1154.47C24000.8,1187.61 23973.9,1214.52 23940.7,1214.52L23820.6,1214.52C23787.5,1214.52 23760.6,1187.61 23760.6,1154.47L23760.6,1034.35C23760.6,1001.21 23787.5,974.295 23820.6,974.295L23940.7,974.295C23973.9,974.295 24000.8,1001.21 24000.8,1034.35Z" style="fill:rgb(204,207,229);"/>
            </g>
        </g>
        <g transform="matrix(1,0,0,2.03941,15380,-7344.7)">
            <g transform="matrix(0.983319,0,0,0.482158,-17267.9,5602.17)">
                <path d="M24000.8,1034.35L24000.8,1154.47C24000.8,1187.61 23973.9,1214.52 23940.7,1214.52L23820.6,1214.52C23787.5,1214.52 23760.6,1187.61 23760.6,1154.47L23760.6,1034.35C23760.6,1001.21 23787.5,974.295 23820.6,974.295L23940.7,974.295C23973.9,974.295 24000.8,1001.21 24000.8,1034.35Z" style="fill:rgb(187,42,17);"/>
            </g>
        </g>
        <g transform="matrix(1,0,0,2.03941,15380,-7344.7)">
            <g transform="matrix(0.983319,0,0,0.482158,-15850.6,5775.91)">
                <path d="M24000.8,1034.35L24000.8,1154.47C24000.8,1187.61 23973.9,1214.52 23940.7,1214.52L23820.6,1214.52C23787.5,1214.52 23760.6,1187.61 23760.6,1154.47L23760.6,1034.35C23760.6,1001.21 23787.5,974.295 23820.6,974.295L23940.7,974.295C23973.9,974.295 24000.8,1001.21 24000.8,1034.35Z" style="fill:rgb(0,204,76);"/>
            </g>
        </g>
        <g transform="matrix(1,0,0,2.03941,15380,-7344.7)">
            <g transform="matrix(0.983319,0,0,0.482158,-17267.9,5428.29)">
                <path d="M24000.8,1034.35L24000.8,1154.47C24000.8,1187.61 23973.9,1214.52 23940.7,1214.52L23820.6,1214.52C23787.5,1214.52 23760.6,1187.61 23760.6,1154.47L23760.6,1034.35C23760.6,1001.21 23787.5,974.295 23820.6,974.295L23940.7,974.295C23973.9,974.295 24000.8,1001.21 24000.8,1034.35Z" style="fill:rgb(203,151,1);"/>
            </g>
        </g>
        <g transform="matrix(1,0,0,2.03941,15380,-7344.7)">
            <g transform="matrix(0.983319,0,0,0.482158,-16795.5,5254.55)">
                <path d="M24000.8,1034.35L24000.8,1154.47C24000.8,1187.61 23973.9,1214.52 23940.7,1214.52L23820.6,1214.52C23787.5,1214.52 23760.6,1187.61 23760.6,1154.47L23760.6,1034.35C23760.6,1001.21 23787.5,974.295 23820.6,974.295L23940.7,974.295C23973.9,974.295 24000.8,1001.21 24000.8,1034.35Z" style="fill:rgb(87,96,168);"/>
            </g>
        </g>
        <g transform="matrix(1,0,0,2.03941,15380,-7344.7)">
            <g transform="matrix(0.983319,0,0,0.482158,-16322.6,5602.3)">
                <path d="M24000.8,1034.35L24000.8,1154.47C24000.8,1187.61 23973.9,1214.52 23940.7,1214.52L23820.6,1214.52C23787.5,1214.52 23760.6,1187.61 23760.6,1154.47L23760.6,1034.35C23760.6,1001.21 23787.5,974.295 23820.6,974.295L23940.7,974.295C23973.9,974.295 24000.8,1001.21 24000.8,1034.35Z" style="fill:rgb(238,93,68);"/>
            </g>
        </g>
        <g transform="matrix(1,0,0,2.03941,15380,-7344.7)">
            <g transform="matrix(0.983319,0,0,0.482158,-16795.5,5775.91)">
                <path d="M24000.8,1034.35L24000.8,1154.47C24000.8,1187.61 23973.9,1214.52 23940.7,1214.52L23820.6,1214.52C23787.5,1214.52 23760.6,1187.61 23760.6,1154.47L23760.6,1034.35C23760.6,1001.21 23787.5,974.295 23820.6,974.295L23940.7,974.295C23973.9,974.295 24000.8,1001.21 24000.8,1034.35Z" style="fill:rgb(0,128,47);"/>
            </g>
        </g>
        <g transform="matrix(1,0,0,2.03941,15380,-7344.7)">
            <g transform="matrix(0.983319,0,0,0.482158,-16322.6,5428.16)">
                <path d="M24000.8,1034.35L24000.8,1154.47C24000.8,1187.61 23973.9,1214.52 23940.7,1214.52L23820.6,1214.52C23787.5,1214.52 23760.6,1187.61 23760.6,1154.47L23760.6,1034.35C23760.6,1001.21 23787.5,974.295 23820.6,974.295L23940.7,974.295C23973.9,974.295 24000.8,1001.21 24000.8,1034.35Z" style="fill:rgb(254,202,52);"/>
            </g>
        </g>
        <g transform="matrix(1,0,0,2.03941,15380,-7344.7)">
            <g transform="matrix(0.983319,0,0,0.482158,-15614.4,5254.55)">
                <path d="M24000.8,1034.35L24000.8,1154.47C24000.8,1187.61 23973.9,1214.52 23940.7,1214.52L23820.6,1214.52C23787.5,1214.52 23760.6,1187.61 23760.6,1154.47L23760.6,1034.35C23760.6,1001.21 23787.5,974.295 23820.6,974.295L23940.7,974.295C23973.9,974.295 24000.8,1001.21 24000.8,1034.35Z" style="fill:rgb(221,223,238);"/>
            </g>
        </g>
        <g transform="matrix(1,0,0,2.03941,15380,-7344.7)">
            <g transform="matrix(0.983319,0,0,0.482158,-17504.1,5602.17)">
                <path d="M24000.8,1034.35L24000.8,1154.47C24000.8,1187.61 23973.9,1214.52 23940.7,1214.52L23820.6,1214.52C23787.5,1214.52 23760.6,1187.61 23760.6,1154.47L23760.6,1034.35C23760.6,1001.21 23787.5,974.295 23820.6,974.295L23940.7,974.295C23973.9,974.295 24000.8,1001.21 24000.8,1034.35Z" style="fill:rgb(163,37,15);"/>
            </g>
        </g>
        <g transform="matrix(1,0,0,2.03941,15380,-7344.7)">
            <g transform="matrix(0.983319,0,0,0.482158,-15614.4,5775.91)">
                <path d="M24000.8,1034.35L24000.8,1154.47C24000.8,1187.61 23973.9,1214.52 23940.7,1214.52L23820.6,1214.52C23787.5,1214.52 23760.6,1187.61 23760.6,1154.47L23760.6,1034.35C23760.6,1001.21 23787.5,974.295 23820.6,974.295L23940.7,974.295C23973.9,974.295 24000.8,1001.21 24000.8,1034.35Z" style="fill:rgb(0,229,86);"/>
            </g>
        </g>
        <g transform="matrix(1,0,0,2.03941,15380,-7344.7)">
            <g transform="matrix(0.983319,0,0,0.482158,-17504.1,5428.29)">
                <path d="M24000.8,1034.35L24000.8,1154.47C24000.8,1187.61 23973.9,1214.52 23940.7,1214.52L23820.6,1214.52C23787.5,1214.52 23760.6,1187.61 23760.6,1154.47L23760.6,1034.35C23760.6,1001.21 23787.5,974.295 23820.6,974.295L23940.7,974.295C23973.9,974.295 24000.8,1001.21 24000.8,1034.35Z" style="fill:rgb(178,132,1);"/>
            </g>
        </g>
        <g transform="matrix(1,0,0,2.03941,15380,-7344.7)">
            <g transform="matrix(0.983319,0,0,0.482158,-16559.2,5254.55)">
                <path d="M24000.8,1034.35L24000.8,1154.47C24000.8,1187.61 23973.9,1214.52 23940.7,1214.52L23820.6,1214.52C23787.5,1214.52 23760.6,1187.61 23760.6,1154.47L23760.6,1034.35C23760.6,1001.21 23787.5,974.295 23820.6,974.295L23940.7,974.295C23973.9,974.295 24000.8,1001.21 24000.8,1034.35Z" style="fill:rgb(120,128,186);"/>
            </g>
        </g>
        <g transform="matrix(1,0,0,2.03941,15380,-7344.7)">
            <g transform="matrix(0.983319,0,0,0.482158,-16559.2,5602.03)">
                <path d="M24000.8,1034.35L24000.8,1154.47C24000.8,1187.61 23973.9,1214.52 23940.7,1214.52L23820.6,1214.52C23787.5,1214.52 23760.6,1187.61 23760.6,1154.47L23760.6,1034.35C23760.6,1001.21 23787.5,974.295 23820.6,974.295L23940.7,974.295C23973.9,974.295 24000.8,1001.21 24000.8,1034.35Z" style="fill:rgb(235,69,41);"/>
            </g>
        </g>
        <g transform="matrix(1,0,0,2.03941,15380,-7344.7)">
            <g transform="matrix(0.983319,0,0,0.482158,-16559.2,5775.91)">
                <path d="M24000.8,1034.35L24000.8,1154.47C24000.8,1187.61 23973.9,1214.52 23940.7,1214.52L23820.6,1214.52C23787.5,1214.52 23760.6,1187.61 23760.6,1154.47L23760.6,1034.35C23760.6,1001.21 23787.5,974.295 23820.6,974.295L23940.7,974.295C23973.9,974.295 24000.8,1001.21 24000.8,1034.35Z" style="fill:rgb(21,150,56);"/>
            </g>
        </g>
        <g transform="matrix(1,0,0,2.03941,15380,-7344.7)">
            <g transform="matrix(0.983319,0,0,0.482158,-16559.2,5428.29)">
                <path d="M24000.8,1034.35L24000.8,1154.47C24000.8,1187.61 23973.9,1214.52 23940.7,1214.52L23820.6,1214.52C23787.5,1214.52 23760.6,1187.61 23760.6,1154.47L23760.6,1034.35C23760.6,1001.21 23787.5,974.295 23820.6,974.295L23940.7,974.295C23973.9,974.295 24000.8,1001.21 24000.8,1034.35Z" style="fill:rgb(252,192,19);"/>
            </g>
        </g>
        <g transform="matrix(1,0,0,2.03941,15380,-7344.7)">
            <g transform="matrix(0.983319,0,0,0.482158,-15378.1,5254.55)">
                <path d="M24000.8,1034.35L24000.8,1154.47C24000.8,1187.61 23973.9,1214.52 23940.7,1214.52L23820.6,1214.52C23787.5,1214.52 23760.6,1187.61 23760.6,1154.47L23760.6,1034.35C23760.6,1001.21 23787.5,974.295 23820.6,974.295L23940.7,974.295C23973.9,974.295 24000.8,1001.21 24000.8,1034.35Z" style="fill:rgb(238,239,246);"/>
            </g>
        </g>
        <g transform="matrix(1,0,0,2.03941,15380,-7344.7)">
            <g transform="matrix(0.983319,0,0,0.482158,-17740.3,5602.17)">
                <path d="M24000.8,1034.35L24000.8,1154.47C24000.8,1187.61 23973.9,1214.52 23940.7,1214.52L23820.6,1214.52C23787.5,1214.52 23760.6,1187.61 23760.6,1154.47L23760.6,1034.35C23760.6,1001.21 23787.5,974.295 23820.6,974.295L23940.7,974.295C23973.9,974.295 24000.8,1001.21 24000.8,1034.35Z" style="fill:rgb(140,31,13);"/>
            </g>
        </g>
        <g transform="matrix(1,0,0,2.03941,15380,-7344.7)">
            <g transform="matrix(0.983319,0,0,0.482158,-15378.1,5775.91)">
                <path d="M24000.8,1034.35L24000.8,1154.47C24000.8,1187.61 23973.9,1214.52 23940.7,1214.52L23820.6,1214.52C23787.5,1214.52 23760.6,1187.61 23760.6,1154.47L23760.6,1034.35C23760.6,1001.21 23787.5,974.295 23820.6,974.295L23940.7,974.295C23973.9,974.295 24000.8,1001.21 24000.8,1034.35Z" style="fill:rgb(0,240,88);"/>
            </g>
        </g>
        <g transform="matrix(1,0,0,2.03941,15380,-7344.7)">
            <g transform="matrix(0.983319,0,0,0.482158,-15141.9,5775.91)">
                <path d="M24000.8,1034.35L24000.8,1154.47C24000.8,1187.61 23973.9,1214.52 23940.7,1214.52L23820.6,1214.52C23787.5,1214.52 23760.6,1187.61 23760.6,1154.47L23760.6,1034.35C23760.6,1001.21 23787.5,974.295 23820.6,974.295L23940.7,974.295C23973.9,974.295 24000.8,1001.21 24000.8,1034.35Z" style="fill:rgb(0,255,94);"/>
            </g>
        </g>
        <g transform="matrix(1,0,0,2.03941,15380,-7344.7)">
            <g transform="matrix(0.983319,0,0,0.482158,-14905.7,5775.91)">
                <path d="M24000.8,1034.35L24000.8,1154.47C24000.8,1187.61 23973.9,1214.52 23940.7,1214.52L23820.6,1214.52C23787.5,1214.52 23760.6,1187.61 23760.6,1154.47L23760.6,1034.35C23760.6,1001.21 23787.5,974.295 23820.6,974.295L23940.7,974.295C23973.9,974.295 24000.8,1001.21 24000.8,1034.35Z" style="fill:rgb(128,255,174);"/>
            </g>
        </g>
        <g transform="matrix(1,0,0,2.03941,15380,-7344.7)">
            <g transform="matrix(0.983319,0,0,0.482158,-14669.5,5775.91)">
                <path d="M24000.8,1034.35L24000.8,1154.47C24000.8,1187.61 23973.9,1214.52 23940.7,1214.52L23820.6,1214.52C23787.5,1214.52 23760.6,1187.61 23760.6,1154.47L23760.6,1034.35C23760.6,1001.21 23787.5,974.295 23820.6,974.295L23940.7,974.295C23973.9,974.295 24000.8,1001.21 24000.8,1034.35Z" style="fill:rgb(204,255,223);"/>
            </g>
        </g>
        <g transform="matrix(1,0,0,2.03941,15380,-7344.7)">
            <g transform="matrix(0.983319,0,0,0.482158,-17740.3,5428.29)">
                <path d="M24000.8,1034.35L24000.8,1154.47C24000.8,1187.61 23973.9,1214.52 23940.7,1214.52L23820.6,1214.52C23787.5,1214.52 23760.6,1187.61 23760.6,1154.47L23760.6,1034.35C23760.6,1001.21 23787.5,974.295 23820.6,974.295L23940.7,974.295C23973.9,974.295 24000.8,1001.21 24000.8,1034.35Z" style="fill:rgb(152,113,1);"/>
            </g>
        </g>
    </g>
</svg>
