<?xml version="1.0" encoding="UTF-8"?>
<svg xmlns="http://www.w3.org/2000/svg" xmlns:xlink="http://www.w3.org/1999/xlink" version="1.1" viewBox="0 0 200 200">
  <defs>
    <style>
      .cls-1 {
        fill: none;
      }

      .cls-2 {
        fill: #fff;
      }

      .cls-3 {
        fill: #1b2648;
      }

      .cls-4 {
        clip-path: url(#clippath);
      }
    </style>
    <clipPath id="clippath">
      <rect class="cls-1" width="200" height="200"/>
    </clipPath>
  </defs>
  <!-- Generator: Adobe Illustrator 28.7.1, SVG Export Plug-In . SVG Version: 1.2.0 Build 142)  -->
  <g>
    <g id="Layer_1">
      <g class="cls-4">
        <path class="cls-3" d="M100,200c55.23,0,100-44.77,100-100S155.23,0,100,0,0,44.77,0,100s44.77,100,100,100"/>
        <path class="cls-2" d="M91.47,102.56l16.28-38.54h.87l1.63,38.54h-18.77ZM127.43,44.19h-29.44c-4.21,0-8.44,2.8-10.38,6.84l-52.51,90.33h40.67l7.16-16.97h28.89c.39,9.48,8.19,16.97,17.68,16.97h23.55l-17.89-90.38c-.38-4.02-3.52-6.8-7.71-6.8"/>
      </g>
    </g>
  </g>
</svg>